<?xml version="1.0" encoding="UTF-8"?><svg id="Layer_1" xmlns="http://www.w3.org/2000/svg" viewBox="0 0 138.3 138.3"><defs><style>.cls-1{fill:#fff;}.cls-2{fill:#95c121;}</style></defs><circle class="cls-2" cx="69.15" cy="69.15" r="69.15"/><path class="cls-1" d="m114.06,100.42c0,.29-.01.58-.04.88-.18,1.83-1.32,2.96-3.22,3.2-.49.06-.97.09-1.44.09-12.01,0-24.02,0-36.03,0h-3.47v-.71h39.5c.45,0,.9-.04,1.35-.09,1.52-.19,2.46-1.04,2.6-2.57.09-.95,0-1.94-.11-2.9-.37-3.61-1.32-7.05-2.98-10.29-2.75-5.4-7.31-8.47-13.02-10.02-.75-.2-1.54-.27-2.3-.46-2.22-.53-4.32-1.4-6.4-2.31-3.08-1.34-6.15-2.72-9.22-4.08-.25-.11-.42-.23-.42-.56,0-2.32-.02-4.65-.07-6.96-.01-.57.06-1.04.55-1.41.17-.13.29-.32.41-.5,1.38-1.85,2.17-3.95,2.7-6.17.23-.95.39-1.92.58-2.9,1.04.23,1.63-.34,2.04-1.17.19-.39.36-.81.43-1.23.17-1.02.33-2.03.4-3.06.09-1.35.16-2.71.12-4.07-.04-1.16-.37-1.45-1.48-1.74.16-1.37.34-2.73.48-4.1.2-1.97.41-3.95.05-5.94-.7-3.88-2.52-7.07-5.84-9.26-2.89-1.91-6.04-2.91-9.39-2.94v-.72c3.46.03,6.74,1.06,9.78,3.06,3.31,2.18,5.38,5.45,6.14,9.72.38,2.09.16,4.15-.04,6.14-.1.95-.22,1.91-.33,2.85-.02.22-.05.45-.08.67.88.34,1.37.89,1.41,2.22.05,1.4-.03,2.82-.12,4.15-.08,1.1-.25,2.19-.41,3.12-.09.55-.31,1.04-.48,1.41-.58,1.21-1.38,1.59-2.1,1.63-.02.1-.04.2-.06.29-.12.67-.25,1.35-.41,2.01-.63,2.65-1.52,4.69-2.82,6.43l-.07.11c-.12.16-.27.37-.5.54-.19.14-.27.29-.26.82.04,2.05.06,4.24.06,6.89.93.41,1.87.83,2.81,1.25,2.1.93,4.26,1.9,6.4,2.82,1.98.86,4.09,1.74,6.29,2.27.32.08.65.13,1,.19.43.08.87.15,1.31.27,6.38,1.73,10.79,5.13,13.47,10.38,1.63,3.19,2.66,6.74,3.05,10.54.08.71.15,1.43.15,2.17Z"/><path class="cls-1" d="m113.2,98.32c.11.96.2,1.95.11,2.9-.15,1.53-1.09,2.38-2.6,2.57-.44.05-.9.09-1.35.09h-39.5v-.71c13.17,0,26.33,0,39.5,0,.41,0,.83-.03,1.26-.08,1.23-.15,1.87-.78,1.98-1.93.09-.89-.01-1.84-.11-2.76-.38-3.62-1.35-7-2.91-10.04-2.49-4.87-6.6-8.03-12.57-9.65-.38-.1-.77-.17-1.18-.24-.36-.06-.73-.12-1.1-.21-2.31-.56-4.49-1.46-6.53-2.35-2.15-.93-4.32-1.9-6.41-2.83-.93-.41-1.87-.83-2.81-1.25-.2-.09-.84-.37-.84-1.21,0-2.67-.02-4.89-.06-6.95-.02-.67.08-1.42.84-1.99.04-.03.12-.14.18-.23l.09-.12c1.17-1.58,2-3.46,2.57-5.91.15-.64.27-1.27.4-1.95.05-.31.12-.61.18-.93l.14-.71.71.16c.49.11.85.02,1.24-.79.13-.26.3-.66.37-1.03.15-.9.32-1.96.39-2.99.09-1.29.17-2.67.12-4-.03-.8-.08-.86-.95-1.08l-.6-.15.08-.62c.05-.42.1-.84.15-1.26.11-.93.23-1.89.33-2.82.2-1.89.4-3.85.06-5.74-.69-3.88-2.56-6.84-5.53-8.79-2.81-1.85-5.83-2.8-9-2.82v-.71c3.35.03,6.5,1.03,9.39,2.94,3.32,2.18,5.14,5.38,5.84,9.26.36,1.98.15,3.96-.05,5.94-.14,1.37-.32,2.73-.48,4.1,1.11.29,1.44.58,1.48,1.74.05,1.36-.02,2.72-.12,4.07-.07,1.03-.23,2.04-.4,3.06-.07.42-.24.83-.43,1.23-.4.83-.99,1.41-2.04,1.17-.19.98-.36,1.95-.58,2.9-.53,2.22-1.32,4.32-2.7,6.17-.13.18-.25.37-.41.5-.49.36-.57.83-.55,1.41.05,2.32.06,4.64.07,6.96,0,.33.17.45.42.56,3.07,1.36,6.13,2.74,9.22,4.08,2.08.9,4.18,1.77,6.4,2.31.76.19,1.55.26,2.3.46,5.71,1.55,10.27,4.61,13.02,10.02,1.65,3.24,2.6,6.68,2.98,10.29Z"/><path class="cls-1" d="m69.86,103.88v.71h-1.42V18.51c.23-.02.46-.03.68-.04h.01c.24,0,.48-.01.72-.01v.72c-.23-.01-.47,0-.71,0v84.7h.71Z"/><path class="cls-1" d="m69.86,103.17v.71h-.71V19.18c.24,0,.48-.01.71,0v83.99Z"/><path class="cls-1" d="m69.86,18.45h0c-.24.01-.48.02-.72.02l.72-.02Z"/><path class="cls-1" d="m68.44,18.5l.68-.02c-.23,0-.46.02-.68.04h0Z"/><path class="cls-1" d="m68.44,103.17v1.42c-13.16,0-26.32,0-39.48,0-.66,0-1.28-.06-1.83-.18-1.82-.38-2.88-1.66-2.89-3.51-.02-1.93.23-3.98.79-6.45.79-3.47,2.03-6.41,3.78-9.01,2.03-2.99,4.73-5.19,8.29-6.75,1.9-.83,3.58-1.32,5.29-1.55,2.1-.27,4.11-1.1,5.84-1.85,2.22-.96,4.46-1.97,6.64-2.94l3.87-1.73v-.06c.01-1.44.02-2.88.04-4.33l.04-3.06c-1.46-1.5-2.5-3.43-3.27-6.05-.26-.88-.43-1.79-.61-2.66-.06-.33-.13-.67-.2-1-.64-.03-1.35-.32-1.91-1.23-.52-.84-.82-1.83-.93-3.12-.16-1.84-.28-3.46-.37-4.97-.04-.57.06-1.12.16-1.6.18-.89.59-1.42,1.34-1.66-.01-.08-.02-.16-.04-.25-.09-.67-.18-1.35-.23-2.05-.04-.43-.07-.86-.11-1.3-.12-1.45-.25-2.95-.2-4.45.08-2.76,1.13-5.35,3.24-7.89,2.87-3.48,6.67-5.6,11.28-6.28.5-.07.99-.12,1.48-.16v1.42c-.42.03-.85.08-1.27.14-2.12.32-4.07.96-5.8,1.93-1.74.96-3.28,2.25-4.6,3.85-1.89,2.29-2.85,4.59-2.91,7.03-.04,1.41.08,2.88.2,4.29.04.44.08.88.11,1.32.05.65.13,1.31.22,1.96.04.3.08.61.12.92l.09.72-.73.07c-.62.05-.69.16-.79.66-.08.4-.16.85-.13,1.25.08,1.48.2,3.09.36,4.91.09,1.06.33,1.85.73,2.5.35.57.69.62,1.11.53l.71-.17.18.89c.02.1.04.19.06.27.08.4.16.79.24,1.18.16.85.34,1.72.58,2.54.71,2.43,1.66,4.18,2.99,5.52.31.31.34.76.34.94-.01,1.02-.02,2.05-.04,3.07-.01,1.44-.03,2.88-.04,4.32,0,.25,0,.98-.83,1.35-1.29.57-2.58,1.15-3.87,1.73-2.18.98-4.42,1.98-6.65,2.95-1.81.79-3.93,1.66-6.22,1.96-1.57.2-3.13.66-4.91,1.44-3.3,1.44-5.81,3.48-7.68,6.24-1.65,2.44-2.82,5.23-3.57,8.52-.54,2.36-.78,4.3-.76,6.12.01,1.18.61,1.9,1.76,2.14.46.09.97.14,1.54.14,13.16,0,26.32,0,39.48,0Z"/></svg>
